<?xml version="1.0" standalone="no"?>
<!DOCTYPE svg PUBLIC "-//W3C//DTD SVG 20010904//EN"
 "http://www.w3.org/TR/2001/REC-SVG-20010904/DTD/svg10.dtd">
<svg version="1.0" xmlns="http://www.w3.org/2000/svg"
 width="1024.000000pt" height="1024.000000pt" viewBox="0 0 1024.000000 1024.000000"
 preserveAspectRatio="xMidYMid meet">
<metadata>
Created by potrace 1.14, written by Peter Selinger 2001-2017
</metadata>
<g transform="translate(0.000000,1024.000000) scale(0.100000,-0.100000)"
fill="#000000" stroke="none">
<path d="M4556 8008 c-7 -18 -521 -1446 -1141 -3173 -620 -1727 -1131 -3144
-1135 -3148 -4 -5 -177 -38 -384 -75 l-376 -67 0 -132 0 -133 1105 0 1106 0
-3 133 -3 132 -443 67 c-244 36 -446 69 -449 71 -3 4 451 1322 657 1905 l12
32 1321 0 1322 0 331 -968 c318 -928 331 -967 310 -974 -11 -3 -213 -35 -448
-70 l-428 -63 0 -132 0 -133 1415 0 1415 0 0 133 0 133 -421 67 c-232 37 -423
68 -424 69 -2 2 -519 1385 -1150 3073 -631 1689 -1165 3118 -1187 3178 l-40
107 -475 0 -474 0 -13 -32z m843 -2323 l588 -1610 -584 -3 c-320 -1 -846 -1
-1166 0 l-584 3 569 1605 c632 1785 579 1639 585 1625 2 -5 268 -734 592
-1620z"/>
</g>
</svg>
